<?xml version="1.0" standalone="no"?>
<!DOCTYPE svg PUBLIC "-//W3C//DTD SVG 20010904//EN"
 "http://www.w3.org/TR/2001/REC-SVG-20010904/DTD/svg10.dtd">
<svg version="1.0" xmlns="http://www.w3.org/2000/svg"
 width="1035.000000pt" height="244.000000pt" viewBox="0 0 1035.000000 244.000000"
 preserveAspectRatio="xMidYMid meet">

<g transform="translate(0.000000,244.000000) scale(0.100000,-0.100000)"
fill="#000" stroke="none">
<path d="M5370 2415 c-176 -37 -317 -125 -384 -239 -61 -105 -77 -287 -37
-416 49 -158 133 -230 439 -381 182 -89 226 -115 243 -142 34 -54 14 -128 -44
-159 -94 -50 -361 -15 -579 77 -45 19 -86 35 -90 35 -4 0 -8 -92 -8 -204 l0
-204 48 -20 c103 -45 224 -72 356 -82 303 -21 512 36 656 180 125 124 173 293
136 471 -35 163 -124 260 -333 363 -48 24 -141 69 -206 101 -163 80 -202 128
-162 204 21 41 66 56 170 55 100 0 204 -24 324 -74 41 -16 75 -29 77 -28 4 5
133 332 136 346 4 17 -111 63 -247 98 -84 22 -127 27 -265 30 -115 2 -185 -1
-230 -11z"/>
<path d="M9600 2415 c-176 -37 -317 -125 -384 -239 -61 -105 -77 -287 -37
-416 49 -158 133 -230 439 -381 182 -89 226 -115 243 -142 34 -54 14 -128 -44
-159 -94 -50 -361 -15 -579 77 -45 19 -86 35 -90 35 -4 0 -8 -92 -8 -204 l0
-204 48 -20 c103 -45 224 -72 356 -82 303 -21 512 36 656 180 125 124 173 293
136 471 -35 163 -124 260 -333 363 -48 24 -141 69 -206 101 -163 80 -202 128
-162 204 21 41 66 56 170 55 100 0 204 -24 324 -74 41 -16 75 -29 77 -28 4 5
133 332 136 346 4 17 -111 63 -247 98 -84 22 -127 27 -265 30 -115 2 -185 -1
-230 -11z"/>
<path d="M440 1568 c-1 -469 -5 -897 -9 -951 -19 -210 -98 -277 -297 -256 -38
4 -81 10 -97 14 l-27 7 0 -175 0 -175 63 -11 c88 -15 269 -13 348 3 151 32
280 131 349 267 78 156 75 116 75 1179 l0 945 -202 3 -203 2 0 -852z"/>
<path d="M940 1556 l0 -856 398 0 c351 0 408 2 489 19 213 44 364 163 416 326
52 164 15 360 -86 451 -38 34 -149 94 -174 94 -25 0 -12 19 16 25 33 7 101 53
138 94 13 14 39 55 56 91 30 62 32 71 32 181 0 113 -1 118 -35 185 -45 89
-120 148 -236 187 -136 44 -180 48 -606 54 l-408 5 0 -856z m737 475 c55 -26
77 -67 71 -138 -8 -98 -63 -131 -230 -140 l-108 -6 0 152 0 151 113 0 c88 0
121 -4 154 -19z m17 -646 c72 -36 100 -103 84 -195 -9 -54 -57 -103 -115 -119
-21 -6 -86 -11 -145 -11 l-108 0 0 176 0 176 123 -4 c98 -2 130 -7 161 -23z"/>
<path d="M2320 1556 l0 -856 235 0 235 0 0 310 0 310 58 0 57 -1 180 -309 180
-310 263 0 c144 0 262 2 262 5 0 3 -111 170 -246 371 -135 201 -244 367 -243
368 2 2 14 8 26 15 49 25 142 112 177 165 60 90 78 155 79 276 1 127 -16 192
-73 278 -48 71 -114 123 -208 162 -135 57 -183 62 -599 67 l-383 5 0 -856z
m695 475 c70 -32 89 -62 93 -144 3 -60 -1 -80 -20 -117 -34 -67 -86 -92 -204
-98 l-94 -5 0 192 0 191 93 0 c68 0 102 -5 132 -19z"/>
<path d="M3590 2220 l0 -190 208 -2 207 -3 3 -663 2 -662 230 0 230 0 0 665 0
665 210 0 210 0 0 190 0 190 -650 0 -650 0 0 -190z"/>
<path d="M6140 1555 l0 -855 210 0 210 0 0 408 c0 225 -5 491 -11 591 -6 101
-9 185 -6 187 2 2 143 -263 313 -591 l309 -595 308 0 307 0 0 855 0 855 -210
0 -210 0 1 -447 c0 -247 4 -513 8 -593 5 -80 8 -146 7 -147 0 0 -141 265 -312
590 l-311 592 -306 3 -307 2 0 -855z"/>
<path d="M7830 2220 l0 -190 208 -2 207 -3 3 -663 2 -662 230 0 230 0 0 665 0
665 210 0 210 0 0 190 0 190 -650 0 -650 0 0 -190z"/>
<path d="M960 301 l0 -261 25 0 25 0 0 115 0 115 145 0 c117 0 145 3 145 14 0
23 -27 27 -160 25 l-125 -1 -3 106 -3 106 156 0 c144 0 156 1 153 18 -3 15
-21 17 -181 20 l-177 3 0 -260z"/>
<path d="M1380 301 l0 -261 25 0 25 0 0 110 0 110 78 0 77 0 83 -110 c73 -98
86 -110 112 -110 l31 0 -77 103 c-43 56 -81 107 -86 114 -6 8 4 18 36 32 62
27 88 70 83 135 -4 40 -11 55 -35 77 -42 38 -87 49 -229 56 l-123 6 0 -262z
m282 195 c55 -26 72 -80 43 -135 -23 -45 -69 -61 -179 -61 l-96 0 0 111 0 112
99 -6 c61 -3 112 -11 133 -21z"/>
<path d="M2016 540 c-104 -41 -162 -131 -160 -250 2 -107 51 -187 142 -231 56
-27 188 -32 264 -10 103 30 170 123 172 239 1 83 -16 133 -62 184 -57 63 -102
81 -212 85 -77 3 -104 -1 -144 -17z m229 -31 c22 -6 56 -28 76 -48 73 -72 81
-222 17 -314 -59 -84 -248 -103 -348 -35 -66 45 -98 166 -70 268 14 53 69 111
121 127 45 15 154 16 204 2z"/>
<path d="M2550 298 l0 -258 26 0 25 0 -3 225 c-2 152 0 221 7 212 6 -7 90
-108 188 -225 142 -168 184 -212 203 -212 l24 0 0 261 0 260 -22 -3 -23 -3 0
-225 0 -226 -164 196 c-200 239 -219 259 -242 257 -18 -1 -19 -14 -19 -259z"/>
<path d="M3101 551 c-8 -5 -11 -16 -8 -25 5 -13 24 -16 107 -16 l100 0 0 -235
0 -235 25 0 25 0 0 235 0 234 103 3 c94 3 102 4 102 23 0 19 -7 20 -220 22
-121 2 -226 -1 -234 -6z"/>
<path d="M3890 300 l0 -260 179 0 c165 0 179 1 177 18 -3 17 -2 17 -278 22
l-28 0 0 105 0 105 145 0 c138 0 145 1 145 20 0 19 -7 20 -145 20 l-145 0 0
95 0 95 154 0 c141 0 154 1 152 18 -3 15 -20 17 -179 20 l-177 2 0 -260z"/>
<path d="M4360 300 l0 -260 26 0 26 0 -4 225 c-2 152 0 221 7 212 6 -7 90
-108 188 -225 142 -168 184 -212 203 -212 l24 0 0 261 0 260 -22 -3 -23 -3 0
-225 0 -225 -183 218 c-173 204 -205 237 -231 237 -8 0 -11 -83 -11 -260z"/>
<path d="M4980 300 l0 -262 143 5 c160 5 199 14 258 60 55 42 82 96 87 175 9
128 -41 209 -154 252 -45 17 -90 23 -196 27 l-138 6 0 -263z m300 199 c48 -16
97 -54 115 -89 22 -42 29 -128 15 -180 -17 -63 -81 -124 -146 -138 -55 -13
-81 -15 -171 -13 l-63 1 0 221 0 222 108 -6 c59 -3 123 -11 142 -18z"/>
<path d="M5800 299 l0 -261 143 5 c159 5 198 14 258 60 64 49 84 95 84 197 0
102 -19 148 -78 191 -62 45 -127 60 -274 65 l-133 5 0 -262z m318 191 c82 -35
122 -98 122 -190 0 -94 -62 -183 -145 -207 -33 -10 -149 -17 -227 -14 -17 1
-18 18 -18 222 l0 222 108 -5 c81 -4 120 -11 160 -28z"/>
<path d="M6410 299 l0 -259 179 0 c165 0 179 1 177 18 -3 15 -19 17 -154 20
l-152 3 0 104 0 105 145 0 c138 0 145 1 145 20 0 19 -7 20 -145 20 l-145 0 0
95 0 95 156 0 c143 0 155 1 152 18 -3 15 -20 17 -181 18 l-177 2 0 -259z"/>
<path d="M6795 539 c4 -11 39 -89 79 -172 39 -84 89 -191 111 -239 35 -76 43
-87 65 -87 23 0 35 21 143 252 64 139 117 255 117 260 0 17 -41 5 -54 -15 -8
-13 -56 -114 -107 -225 -51 -112 -96 -203 -99 -203 -3 0 -45 89 -95 196 -108
236 -118 254 -146 254 -16 0 -19 -4 -14 -21z"/>
<path d="M7370 299 l0 -259 179 0 c165 0 179 1 177 18 -3 15 -19 17 -154 20
l-152 3 0 104 0 105 145 0 c138 0 145 1 145 20 0 19 -7 20 -145 20 l-145 0 0
95 0 95 154 0 c141 0 154 1 152 18 -3 15 -20 17 -179 18 l-177 2 0 -259z"/>
<path d="M7840 301 l0 -261 181 0 c166 0 180 1 177 18 -3 15 -19 17 -143 19
-77 1 -146 2 -152 3 -10 0 -13 58 -15 238 l-3 237 -22 3 -23 3 0 -260z"/>
<path d="M8406 540 c-121 -48 -184 -171 -156 -305 32 -154 204 -239 385 -190
122 33 186 118 188 248 1 113 -44 190 -138 240 -59 31 -211 35 -279 7z m229
-31 c51 -14 110 -73 124 -124 6 -22 11 -63 11 -91 0 -136 -72 -212 -210 -222
-112 -8 -196 29 -234 103 -25 48 -32 144 -16 203 13 52 71 113 120 129 46 15
155 16 205 2z"/>
<path d="M8940 300 l0 -260 25 0 25 0 0 104 0 104 103 4 c122 5 185 28 217 80
39 65 16 159 -48 192 -40 21 -141 36 -239 36 l-83 0 0 -260z m223 211 c90 -15
130 -68 108 -143 -16 -52 -67 -76 -166 -78 -129 -3 -115 -16 -115 115 l0 115
63 -1 c34 0 84 -4 110 -8z"/>
<path d="M9440 300 l0 -260 181 0 c166 0 180 1 177 18 -3 15 -19 17 -143 19
-77 1 -146 2 -152 3 -10 0 -13 28 -13 105 l0 105 145 0 c138 0 145 1 145 20 0
19 -7 20 -145 20 l-145 0 0 95 0 95 156 0 c143 0 155 1 152 18 -3 15 -21 17
-181 20 l-177 2 0 -260z"/>
<path d="M9910 301 l0 -261 25 0 25 0 0 110 0 110 78 0 77 0 83 -110 c72 -97
86 -110 112 -110 l29 0 -76 103 c-42 56 -80 107 -85 114 -6 8 4 18 36 32 62
27 88 70 83 135 -4 40 -11 55 -35 77 -43 38 -87 49 -229 56 l-123 6 0 -262z
m284 194 c74 -35 70 -142 -7 -178 -25 -12 -62 -17 -131 -17 l-96 0 0 111 0
112 99 -6 c62 -3 112 -11 135 -22z"/>
<path d="M3570 235 c0 -12 18 -15 105 -15 87 0 105 3 105 15 0 12 -18 15 -105
15 -87 0 -105 -3 -105 -15z"/>
</g>
</svg>
